<?xml version="1.0" standalone="no"?><!DOCTYPE svg PUBLIC "-//W3C//DTD SVG 1.1//EN" "http://www.w3.org/Graphics/SVG/1.1/DTD/svg11.dtd"><svg t="1587461546667" class="icon" viewBox="0 0 1080 1024" version="1.1" xmlns="http://www.w3.org/2000/svg" p-id="1268" xmlns:xlink="http://www.w3.org/1999/xlink" width="210.9375" height="200"><defs><style type="text/css"></style></defs><path d="M213.333333 910.222222h-85.333333V170.666667C128 81.92 212.593778 14.222222 312.888889 14.222222h227.555555c100.295111 0 184.888889 67.697778 184.888889 156.444445v796.444444h-85.333333V170.666667c0-36.920889-42.723556-71.111111-99.555556-71.111111h-227.555555c-56.832 0-99.555556 34.190222-99.555556 71.111111v739.555555z" p-id="1269"></path><path d="M725.333333 967.111111h-85.333333V341.333333c0-54.954667 44.600889-99.555556 99.555556-99.555555h113.777777c54.954667 0 99.555556 44.600889 99.555556 99.555555v625.777778h-85.333333V341.333333a14.222222 14.222222 0 0 0-14.222223-14.222222h-113.777777a14.222222 14.222222 0 0 0-14.222223 14.222222v625.777778z" p-id="1270"></path><path d="M42.666667 910.222222h995.555555a42.666667 42.666667 0 1 1 0 85.333334H42.666667a42.666667 42.666667 0 1 1 0-85.333334z" p-id="1271"></path><path d="M284.444444 227.555556m42.666667 0l142.222222 0q42.666667 0 42.666667 42.666666l0 0q0 42.666667-42.666667 42.666667l-142.222222 0q-42.666667 0-42.666667-42.666667l0 0q0-42.666667 42.666667-42.666666Z" p-id="1272"></path><path d="M284.444444 455.111111m42.666667 0l142.222222 0q42.666667 0 42.666667 42.666667l0 0q0 42.666667-42.666667 42.666666l-142.222222 0q-42.666667 0-42.666667-42.666666l0 0q0-42.666667 42.666667-42.666667Z" p-id="1273"></path><path d="M284.444444 682.666667m42.666667 0l142.222222 0q42.666667 0 42.666667 42.666666l0 0q0 42.666667-42.666667 42.666667l-142.222222 0q-42.666667 0-42.666667-42.666667l0 0q0-42.666667 42.666667-42.666666Z" p-id="1274"></path></svg>