<?xml version="1.0" encoding="UTF-8"?>
<svg width="60px" height="65px" viewBox="0 0 60 65" version="1.1" xmlns="http://www.w3.org/2000/svg" xmlns:xlink="http://www.w3.org/1999/xlink">
    <title>编组 5@3x</title>
    <g id="工单管理" stroke="none" stroke-width="1" fill="none" fill-rule="evenodd">
        <g transform="translate(-994.000000, -99.000000)" id="编组-4备份">
            <g transform="translate(785.000000, 71.000000)">
                <g id="编组-6" transform="translate(209.000000, 25.000000)">
                    <g id="编组-5" transform="translate(0.000000, 3.000000)">
                        <path d="M9,1.5 L50.25,1.5 L50.25,1.5 L57,1.5 C55.1614018,2.4192991 54,4.29848669 54,6.35410197 L54,45.5 C54,54.336556 46.836556,61.5 38,61.5 L0,61.5 L0,61.5 C1.96592895,58.0596243 3,54.1657632 3,50.2033067 L3,7.5 C3,4.1862915 5.6862915,1.5 9,1.5 Z" id="矩形" fill="#EBEFF7"></path>
                        <g id="编组-9" transform="translate(41.000000, 37.500000)" fill="#5496F2">
                            <g id="编组-8">
                                <path d="M1.8,2.34782609 L16.2,2.34782609 L16.2,6.3 C16.2,10.2764502 12.9764502,13.5 9,13.5 C5.0235498,13.5 1.8,10.2764502 1.8,6.3 L1.8,2.34782609 L1.8,2.34782609 Z" id="矩形"></path>
                                <rect id="矩形" x="0" y="0" width="18" height="2.34782609" rx="1.17391304"></rect>
                            </g>
                            <g id="编组-7" transform="translate(9.000000, 20.000000) scale(1, -1) translate(-9.000000, -20.000000) translate(0.000000, 13.000000)">
                                <path d="M1.8,2.34782609 L16.2,2.34782609 L16.2,6.3 C16.2,10.2764502 12.9764502,13.5 9,13.5 C5.0235498,13.5 1.8,10.2764502 1.8,6.3 L1.8,2.34782609 L1.8,2.34782609 Z" id="矩形备份"></path>
                                <rect id="矩形备份-2" x="0" y="0" width="18" height="2.34782609" rx="1.17391304"></rect>
                            </g>
                        </g>
                        <path d="M57,0.5 C58.6568542,0.5 60,1.84314575 60,3.5 L60,11.5 L60,11.5 L54,11.5 L54,3.5 C54,1.84314575 55.3431458,0.5 57,0.5 Z" id="矩形" fill="#94A8B3"></path>
                        <rect id="矩形" fill="#8CA0BC" x="12" y="12.5" width="34" height="6" rx="3"></rect>
                        <rect id="矩形备份-3" fill="#8CA0BC" x="12" y="22.5" width="25" height="6" rx="3"></rect>
                    </g>
                </g>
            </g>
        </g>
    </g>
</svg>