<?xml version="1.0" encoding="utf-8"?>
<!-- Generator: Adobe Illustrator 24.0.0, SVG Export Plug-In . SVG Version: 6.00 Build 0)  -->
<svg version="1.1" id="图层_1" xmlns="http://www.w3.org/2000/svg" xmlns:xlink="http://www.w3.org/1999/xlink" x="0px" y="0px"
	 viewBox="0 0 15 15" style="enable-background:new 0 0 15 15;" xml:space="preserve">
<style type="text/css">
	.st0{fill-rule:evenodd;clip-rule:evenodd;}
</style>
<title>路径@2x</title>
<g id="工单详情">
	<g id="工单处理" transform="translate(-323.000000, -470.000000)">
		<g id="编组-12" transform="translate(244.000000, 132.000000)">
			<g id="编组-10备份" transform="translate(79.000000, 335.000000)">
				<path id="路径" class="st0" d="M8.9,6.2c0.7-0.7,1.6-1,2.5-1s1.8,0.3,2.5,1c0.7,0.7,1,1.5,1,2.4c0,0.9-0.3,1.7-1,2.4l-5.9,5.6
					C7.1,17.6,6,18,4.7,18s-2.4-0.4-3.4-1.3c-0.9-0.9-1.4-2-1.4-3.2s0.5-2.3,1.4-3.2L8.9,3l0.9,0.8L2.2,11c-0.7,0.7-1,1.5-1,2.4
					c0,0.9,0.3,1.7,1,2.4c0.7,0.7,1.6,1,2.5,1s1.8-0.3,2.5-1l5.9-5.6c0.5-0.5,0.7-1,0.7-1.6c0-0.6-0.2-1.1-0.7-1.6
					c-0.5-0.4-1.1-0.7-1.7-0.7c-0.6,0-1.2,0.2-1.7,0.7l-5.4,5.2c-0.2,0.2-0.2,0.3-0.2,0.6c0.1,0.2,0.2,0.3,0.4,0.4
					c0.2,0.1,0.4,0,0.6-0.2l5.4-5.2l0.8,0.8L6,13.8c-0.2,0.2-0.5,0.4-0.8,0.5c-0.3,0.1-0.6,0.1-0.9,0c-0.3-0.1-0.6-0.2-0.8-0.4
					c-0.2-0.2-0.4-0.5-0.5-0.8s-0.1-0.6,0-0.9c0.1-0.3,0.2-0.5,0.5-0.8L8.9,6.2z"/>
			</g>
		</g>
	</g>
</g>
</svg>
