<?xml version="1.0" encoding="utf-8"?>
<!-- Generator: Adobe Illustrator 24.0.0, SVG Export Plug-In . SVG Version: 6.00 Build 0)  -->
<svg version="1.1" id="图层_1" xmlns="http://www.w3.org/2000/svg" xmlns:xlink="http://www.w3.org/1999/xlink" x="0px" y="0px"
	 viewBox="0 0 200 200" style="enable-background:new 0 0 200 200;" xml:space="preserve">
<path d="M120,50h50c11,0,20,9,20,20v90c0,11-9,20-20,20H30c-11,0-20-9-20-20V40c0-11,9-20,20-20h59c7,0,13,3,17,9L120,50z M90,102
	v48c0,6,4,10,10,10s10-4,10-10v-46l11,11c4,4,10,4,14,0c4-4,4-10,0-14l-28-28c-2-2-5-3-8-3s-6,1-8,3l-28,28c-4,4-4,10,0,14
	c4,4,10,4,14,0C77,115,90,102,90,102z"/>
</svg>
