<?xml version="1.0" encoding="utf-8"?>
<!-- Generator: Adobe Illustrator 24.0.0, SVG Export Plug-In . SVG Version: 6.00 Build 0)  -->
<svg version="1.1" id="图层_1" xmlns="http://www.w3.org/2000/svg" xmlns:xlink="http://www.w3.org/1999/xlink" x="0px" y="0px"
	 viewBox="0 0 200 200" style="enable-background:new 0 0 200 200;" xml:space="preserve">
<path d="M183.3,0H16C7.2,0,0,6.6,0,15.5v155.8c0,8.9,7.2,16.2,16,16.2h168.7c8.8,0,15.3-7.3,15.3-16.2V15.5C200,6.6,192.1,0,183.3,0
	L183.3,0z M64.4,23.1c13.5,0,24.5,11.1,24.5,24.8c0,13.7-11,24.8-24.5,24.8S39.9,61.6,39.9,47.9C39.9,34.2,50.9,23.1,64.4,23.1
	L64.4,23.1z M22.5,167.8c-1.8,0-3.7-0.6-5.2-2c-3.4-2.9-3.7-8-0.9-11.4l36.8-56.1c2.7-3.2,7.5-3.8,10.8-1.2l32.4,24.4l58.1-66.8
	c2.8-3.5,17.3-20,25.9-1.3c0,0,0,24.7,0,49.9c0,26.3,0,64.5,0,64.5C180.3,167.8,22.6,167.8,22.5,167.8L22.5,167.8z"/>
</svg>
