<?xml version="1.0" encoding="utf-8"?>
<!-- Generator: Adobe Illustrator 24.0.0, SVG Export Plug-In . SVG Version: 6.00 Build 0)  -->
<svg version="1.1" id="图层_1" xmlns="http://www.w3.org/2000/svg" xmlns:xlink="http://www.w3.org/1999/xlink" x="0px" y="0px"
	 viewBox="0 0 17 18" style="enable-background:new 0 0 17 18;" xml:space="preserve">
<style type="text/css">
	.st0{fill-rule:evenodd;clip-rule:evenodd;}
</style>
<title>标准表icon</title>
<g id="控件">
	<g id="_x32__1_" transform="translate(-15.000000, -6.000000)">
		<g id="编组-4">
			<g id="标准表icon" transform="translate(15.000000, 6.000000)">
				<g id="_x32_">
					<path id="形状" class="st0" d="M14.9,6.4H9.7V1.3H1.8v15.4h13.1V6.4z M14.4,5.1L11,1.8v3.3H14.4z M1.2,0H11l5.2,5.1v12.2
						c0,0.2-0.1,0.3-0.2,0.5c-0.1,0.1-0.3,0.2-0.5,0.2H1.2c-0.2,0-0.3-0.1-0.5-0.2c-0.1-0.1-0.2-0.3-0.2-0.5V0.6
						c0-0.2,0.1-0.3,0.2-0.5S1,0,1.2,0z M4.2,9h8.2v1.5H4.2V9z M4.2,5.2h3v1.5h-3V5.2z M4.2,12.8h8.2v1.5H4.2V12.8z"/>
				</g>
			</g>
		</g>
	</g>
</g>
</svg>
