<?xml version="1.0" encoding="utf-8"?>
<!-- Generator: Adobe Illustrator 24.0.0, SVG Export Plug-In . SVG Version: 6.00 Build 0)  -->
<svg version="1.1" id="图层_1" xmlns="http://www.w3.org/2000/svg" xmlns:xlink="http://www.w3.org/1999/xlink" x="0px" y="0px"
	 viewBox="0 0 200 200" style="enable-background:new 0 0 200 200;" xml:space="preserve">
<path d="M192.3,145.2v-12.3l-10.7-3.6c-0.7-2.2-1.5-4.4-2.6-6.4l5-10.1l-8.7-8.7l-10.1,5c-2-1.1-4.2-2-6.4-2.7l-3.6-10.7H143
	l-3.6,10.7c-2.2,0.7-4.4,1.6-6.4,2.7l-10.1-5l-8.7,8.7l5,10.1c-1.1,2-2,4.2-2.7,6.4l-10.7,3.6v12.3l10.7,3.6
	c0.7,2.2,1.6,4.4,2.7,6.4l-5,10.1l8.7,8.7l10.1-5c2,1.1,4.2,2,6.4,2.7l3.6,10.6h12.3l3.6-10.7c2.2-0.7,4.4-1.5,6.4-2.6l10.1,5
	l8.7-8.7l-5-10.1c1.1-2,2-4.2,2.6-6.4L192.3,145.2z M149.1,154.4c-8.5,0-15.4-6.9-15.4-15.4s6.9-15.4,15.4-15.4
	c8.5,0,15.4,6.9,15.4,15.4c0,0,0,0,0,0C164.6,147.5,157.7,154.4,149.1,154.4z"/>
<path d="M53,55.8C53,76.4,69.6,93,90.2,93.1c20.6,0,37.3-16.7,37.3-37.3c0,0,0,0,0,0c0-20.6-16.7-37.3-37.3-37.3S53,35.2,53,55.8
	C53,55.8,53,55.8,53,55.8z"/>
<path d="M106.6,150.6L92.9,146v-15.8l13.7-4.6c0.8-2.8,2-5.6,3.4-8.2l-6.5-12.9l6.4-6.4c-6.3-1.7-12.8-2.5-19.3-2.5
	c-41.7,0-75.5,33.8-75.5,75.5c0,0,0,0,0,0c0,1.1,0.9,2,2,2h87.7l-1.3-1.3l6.5-13C108.6,156.2,107.4,153.4,106.6,150.6L106.6,150.6z"
	/>
</svg>
