<?xml version="1.0" encoding="utf-8"?>
<!-- Generator: Adobe Illustrator 24.0.0, SVG Export Plug-In . SVG Version: 6.00 Build 0)  -->
<svg version="1.1" id="图层_1" xmlns="http://www.w3.org/2000/svg" xmlns:xlink="http://www.w3.org/1999/xlink" x="0px" y="0px"
	 viewBox="0 0 200 200" style="enable-background:new 0 0 200 200;" xml:space="preserve">
<path d="M0.1,53.3L93,93v107c-7.6-3.3-15.2-7.1-22.8-10.3c-7.1-3.3-14.7-6.5-23.4-10.3l-26.1-11.4c-3.2-1.5-6.2-3.5-8.7-6
	c-2.3-2.3-4.3-4.8-6-7.6c-1.8-2.9-3.2-6-4.3-9.2c-1-3-1.6-6.1-1.6-9.2L0.1,53.3z"/>
<path d="M200.1,53.3v82.6c0.1,3.7-0.6,7.5-2.2,10.9c-1.4,3.5-3.2,6.8-5.4,9.8c-2.1,3.1-4.7,5.8-7.6,8.1c-2.5,2.2-5.2,4-8.1,5.4
	c-7.6,3.3-15.2,6.5-23.9,9.8c-8.2,3.3-15.8,6.5-22.8,9.8c-8.1,3.3-16.3,7.1-23.9,9.8V93L200.1,53.3z"/>
<path d="M194.1,37l-92.9,38.6L7.7,37l92.9-37L194.1,37z"/>
</svg>
