<?xml version="1.0" encoding="utf-8"?>
<!-- Generator: Adobe Illustrator 24.0.0, SVG Export Plug-In . SVG Version: 6.00 Build 0)  -->
<svg version="1.1" id="图层_1" xmlns="http://www.w3.org/2000/svg" xmlns:xlink="http://www.w3.org/1999/xlink" x="0px" y="0px"
	 viewBox="0 0 276.2 200" style="enable-background:new 0 0 276.2 200;" xml:space="preserve">
<path d="M100.3,124.9c12.4,0,26,1.8,40.8,5.4c16.8,4.2,30.4,9.8,40.8,16.8c12.4,8.2,18.6,17.4,18.6,27.6V200H0v-25.2
	c0-10.2,6.2-19.4,18.6-27.6c10.4-7,24-12.6,40.8-16.8C74.3,126.7,87.9,124.9,100.3,124.9z M262.6,137.6c5.3,0,9.5,4.3,9.5,9.5v6
	c0,5.3-4.3,9.5-9.5,9.5h-31c-5.3,0-9.5-4.3-9.5-9.5v-6c0-5.3,4.3-9.5,9.5-9.5H262.6z M100.3,0c9,0,17.3,2.2,24.9,6.8
	c7.5,4.4,13.8,10.7,18.2,18.2c4.5,7.6,6.8,15.9,6.8,24.9s-2.3,17.3-6.8,24.9c-4.4,7.5-10.6,13.8-18.2,18.2
	c-7.5,4.5-16.2,6.8-24.9,6.8c-8.8,0.1-17.4-2.3-24.9-6.8c-7.5-4.4-13.8-10.7-18.2-18.2c-4.5-7.5-6.8-16.2-6.8-24.9
	c0-9,2.3-17.3,6.8-24.9c4.4-7.5,10.6-13.8,18.2-18.2C82.9,2.3,91.5-0.1,100.3,0z M262.6,71.9c5.3,0,9.5,4.3,9.5,9.5v6
	c0,5.3-4.3,9.5-9.5,9.5h-77.9c-5.3,0-9.5-4.3-9.5-9.5v-6c0-5.3,4.3-9.5,9.5-9.5H262.6z M262.6,9.4c5.3,0,9.5,4.3,9.5,9.5v6
	c0,5.3-4.3,9.5-9.5,9.5h-77.9c-5.3,0-9.5-4.3-9.5-9.5v-6c0-5.3,4.3-9.5,9.5-9.5H262.6z"/>
</svg>
