<?xml version="1.0" encoding="utf-8"?>
<!-- Generator: Adobe Illustrator 24.0.0, SVG Export Plug-In . SVG Version: 6.00 Build 0)  -->
<svg version="1.1" id="图层_1" xmlns="http://www.w3.org/2000/svg" xmlns:xlink="http://www.w3.org/1999/xlink" x="0px" y="0px"
	 viewBox="0 0 200 200" style="enable-background:new 0 0 200 200;" xml:space="preserve">
<path d="M195.2,134.7c-1.1-4.1-2.1-7.2-4.1-8.2c-3.1-1-8.2,3-13.3,0c-6.1-4.1-2.1-10.2-4.1-14.3c-1-2.1-5-4.1-10.2-4.1
	c-4.1,5.2-3,8.2-11.2,8.2c-8.2-1-6.2-8.2-12.3-8.2c-3.1,0-7.2,1.1-8.2,4.1c0,2.1,1,9.2-2,12.3c-5.1,4-8.2,0-13.3,2
	c-3,1-5.1,6.2-4.1,9.2c1,4.1,8.2,5.1,8.2,11.2c0,8.2-7.1,8.2-8.2,11.2c-1,3.1,0,8.2,3,10.2c2.1,2,8.2-2.1,13.3,2
	c4.1,4.1,2.1,7.1,1,11.2c0,3.1,7.1,6.1,11.2,6.1c4.1,0,4.1-8.2,12.3-8.2c6.2,0,6.2,4.1,9.2,7.1c2,2.1,8.2-1.1,11.2-3.1
	c2-2-2-6.1,0-11.2c1.1-2.1,3.2-3,5.1-4.1c3-1,7.1,0,10.2,0c3.1-0.9,4.1-8.2,4.1-10.2c-1-3.2-7.1-2.1-8.2-9.2
	C184,139.6,193.3,140.6,195.2,134.7L195.2,134.7z M156.4,166.2c-23.5,4-32.8-31.8-8.2-37.9C176.9,123.2,180,161.1,156.4,166.2z"/>
<path d="M124.1,174.9c-1.1-0.2-2.2-0.2-3.3,0.1c-1.2,0.2-2.4,0.3-3.5,0.3c-2.1,0-4.1-0.6-5.7-1.9c-5.1-3.7-7.1-11.5-5.2-17.3
	c0.8-2.2,2.4-4.1,4.5-5.3c0.3-0.2,1.7-1.1,2-1.3c1-0.4,1.6-1.5,1.4-2.6c0-0.3-0.2-0.5-1.7-1.7l-1-0.8c-2.9-2.3-4.5-4.1-5.2-6.7
	c-2.2-6.3,1.6-15.1,7.8-17.2c3.1-1.2,5.3-1.2,9-0.7l0.8,0.1c1.2,0.1,1.3,0.1,1.4,0.1c-0.1,0.1,0.1-0.6,0.3-1.8
	c0.1-1.3,0.1-2.5,0-3.8c-0.1-1.1-0.1-1.7-0.1-2.2l0.3-2.1c2-5.9,7.9-8.4,14.2-8.4c4.8,0,7.6,2.1,10.2,5.9l0.7,1c0.7,1,1,1.2,1.4,1.3
	c2.6,0,2.3,0.2,2.8-0.6l1.2-2c0.7-1.1,1.4-2.1,2.2-3.2l1.9-2.4h3.1c2.5,0,5.1,0.4,7.5,1.1V81.6c0-4.6-3.8-8.3-8.4-8.3h-37.6V23.4
	c0-4.6-3.8-8.3-8.4-8.2c0,0,0,0,0,0H33.6c-4.6,0-8.3,3.7-8.3,8.3l0,0v133.9h-1.9c-4.6,0-8.3,3.7-8.4,8.3v10.9c0,4.6,3.8,8.3,8.4,8.3
	h100.8c-0.4-1-0.6-2.1-0.7-3.3l0.2-1.6c0.2-0.6,0.3-1.1,0.5-1.9c0.3-0.8,0.5-1.7,0.7-2.6C124.7,175.2,124.4,175,124.1,174.9
	L124.1,174.9z M98.1,131.1H53.2c-2.2,0-4-1.8-4-4c0-2.2,1.8-4,4-4H98c2.2,0,4,1.8,4,4C102,129.3,100.3,131.1,98.1,131.1L98.1,131.1
	L98.1,131.1z M98.1,94.8H53.2c-2.2,0-4-1.8-4-4c0-2.2,1.8-4,4-4c0,0,0,0,0,0H98c2.2,0,4,1.8,4,4C102,93,100.3,94.8,98.1,94.8
	L98.1,94.8z M98.1,55.6H53.2c-2.2,0-4-1.8-4-4c0-2.2,1.8-4,4-4H98c2.2,0,4,1.8,4,4C102,53.8,100.3,55.6,98.1,55.6L98.1,55.6z"/>
</svg>
