<?xml version="1.0" encoding="utf-8"?>
<!-- Generator: Adobe Illustrator 24.0.0, SVG Export Plug-In . SVG Version: 6.00 Build 0)  -->
<svg version="1.1" id="图层_1" xmlns="http://www.w3.org/2000/svg" xmlns:xlink="http://www.w3.org/1999/xlink" x="0px" y="0px"
	 viewBox="0 0 314.3 200" style="enable-background:new 0 0 314.3 200;" xml:space="preserve">
<path d="M214.3,114.3c-4.1,0-8.9,0.3-13.9,0.7c16.6,12,28.1,28.1,28.1,49.3V200h85.7v-35.7C314.3,131,247.6,114.3,214.3,114.3
	L214.3,114.3z M100,114.3c-33.3,0-100,16.7-100,50V200h200v-35.7C200,131,133.3,114.3,100,114.3L100,114.3z M100,85.7
	c23.7,0,42.9-19.2,42.9-42.9S123.7,0,100,0S57.2,19.2,57.2,42.9c-0.1,23.6,18.9,42.8,42.5,42.9C99.8,85.7,99.9,85.7,100,85.7
	L100,85.7z M214.3,85.7c23.7,0,42.9-19.2,42.9-42.9S238,0,214.3,0s-42.9,19.2-42.9,42.9c-0.1,23.6,18.9,42.8,42.5,42.9
	C214.1,85.7,214.2,85.7,214.3,85.7z"/>
</svg>
