<?xml version="1.0" encoding="utf-8"?>
<!-- Generator: Adobe Illustrator 24.1.0, SVG Export Plug-In . SVG Version: 6.00 Build 0)  -->
<svg version="1.1" id="图层_1" xmlns="http://www.w3.org/2000/svg" xmlns:xlink="http://www.w3.org/1999/xlink" x="0px" y="0px"
	 viewBox="0 0 24 24" style="enable-background:new 0 0 24 24;" xml:space="preserve">
<style type="text/css">
	.st0{fill-opacity:0;}
</style>
<g id="控件">
	<g id="系统管理" transform="translate(-10.000000, -10.000000)">
		<g transform="translate(10.000000, 10.000000)">
			<rect id="矩形" class="st0" width="24" height="24"/>
			<path id="形状" d="M17.8,21.3H6.3c-0.4,0-0.8-0.4-0.8-0.8s0.4-0.8,0.8-0.8h11.5c0.4,0,0.8,0.4,0.8,0.8S18.2,21.3,17.8,21.3z
				 M12,9.4c-0.4,0-0.7,0.2-0.9,0.4c-0.3,0.3-0.5,0.7-0.5,1.1c0,0.5,0.3,1,0.7,1.2c0.2,0.2,0.5,0.2,0.8,0.2c0.8,0,1.4-0.7,1.4-1.4
				S12.8,9.4,12,9.4L12,9.4z"/>
			<path id="形状_1_" d="M21,3.5H3.1C2,3.5,1.1,4.4,1.1,5.4v10.9c0,1,0.9,1.9,1.9,1.9H21c1,0,1.9-0.9,1.9-1.9V5.4
				C22.9,4.4,22,3.5,21,3.5z M16.1,11.4c0,0.1-0.1,0.2-0.2,0.2h-0.5c-0.1,0-0.1,0.1-0.2,0.1c-0.1,0.3-0.2,0.6-0.3,0.8
				c-0.1,0.1-0.1,0.2,0,0.2l0.4,0.4c0.1,0.1,0.1,0.2,0,0.2l-0.8,0.8c-0.1,0.1-0.2,0.1-0.2,0L14,13.9l-0.2-0.2
				c-0.1-0.1-0.1-0.1-0.2,0c-0.3,0.2-0.5,0.3-0.8,0.3c-0.1,0-0.1,0.1-0.1,0.2v0.5c0,0.1-0.1,0.2-0.2,0.2h-1.1
				c-0.1,0-0.2-0.1-0.2-0.2v-0.5c0-0.1-0.1-0.1-0.1-0.2c-0.3-0.1-0.6-0.2-0.8-0.3c-0.1-0.1-0.2-0.1-0.2,0l-0.4,0.4
				c-0.1,0.1-0.2,0.1-0.2,0l-0.9-0.8c-0.1-0.1-0.1-0.2,0-0.2l0.4-0.4c0.1-0.1,0.1-0.1,0-0.2c-0.1-0.2-0.2-0.3-0.2-0.5
				c-0.1-0.1-0.1-0.2-0.1-0.3c0-0.1-0.1-0.1-0.2-0.1H8.1c-0.1,0-0.2-0.1-0.2-0.2v-1.1c0-0.1,0.1-0.2,0.2-0.2h0.5
				c0.1,0,0.1-0.1,0.2-0.1C8.8,9.8,9,9.4,9.1,9.2c0.1-0.1,0.1-0.2,0-0.2L8.7,8.6c-0.1-0.1-0.1-0.2,0-0.2l0.8-0.8
				c0.1-0.1,0.2-0.1,0.2,0l0.4,0.4c0.1,0.1,0.1,0.1,0.2,0s0.1-0.1,0.2-0.1c0.2-0.1,0.4-0.2,0.7-0.3c0.1,0,0.1-0.1,0.1-0.2V6.8
				c0-0.1,0.1-0.2,0.2-0.2h1.1c0.1,0,0.2,0.1,0.2,0.2v0.5c0,0.1,0.1,0.1,0.1,0.2c0.1,0,0.1,0.1,0.1,0.1c0.1,0.1,0.3,0.1,0.4,0.1
				l0.3,0.2c0.1,0.1,0.2,0.1,0.2,0l0.4-0.4c0.1-0.1,0.2-0.1,0.2,0l0.8,0.8c0.1,0.1,0.1,0.2,0,0.2l-0.4,0.4c-0.1,0.1-0.1,0.1,0,0.2
				c0.2,0.3,0.3,0.5,0.3,0.8c0,0.1,0.1,0.1,0.2,0.1h0.5C16,10,16,10,16,10.1L16.1,11.4L16.1,11.4z"/>
		</g>
	</g>
</g>
</svg>
