<?xml version="1.0" encoding="utf-8"?>
<!-- Generator: Adobe Illustrator 24.0.0, SVG Export Plug-In . SVG Version: 6.00 Build 0)  -->
<svg version="1.1" id="图层_1" xmlns="http://www.w3.org/2000/svg" xmlns:xlink="http://www.w3.org/1999/xlink" x="0px" y="0px"
	 viewBox="0 0 200 200" style="enable-background:new 0 0 200 200;" xml:space="preserve">
<path d="M0,183.3c0,9.2,7.4,16.7,16.6,16.7c0,0,0,0,0,0h166.5c9.2,0,16.7-7.4,16.7-16.6c0,0,0-0.1,0-0.1V60.7H0V183.3z M37.5,94.1
	h125c3.2,0.1,5.8,2.9,5.6,6.2c-0.1,3-2.6,5.5-5.6,5.6h-125c-3.2,0.1-6-2.4-6.2-5.6c-0.1-3.2,2.4-6,5.6-6.2
	C37.1,94.1,37.3,94.1,37.5,94.1z M37.5,139.3h88.2c3.2-0.1,6,2.4,6.2,5.6c0.1,3.2-2.4,6-5.6,6.2c-0.2,0-0.4,0-0.5,0H37.5
	c-3.2,0.1-6-2.4-6.2-5.6c-0.1-3.2,2.4-6,5.6-6.2C37.1,139.2,37.3,139.2,37.5,139.3z M183.2,0H16.7C7.5,0,0,7.4,0,16.6c0,0,0,0,0,0
	V49h199.9V16.7C199.9,7.5,192.5,0,183.2,0C183.3,0,183.3,0,183.2,0z"/>
</svg>
