<?xml version="1.0" encoding="utf-8"?>
<!-- Generator: Adobe Illustrator 24.0.0, SVG Export Plug-In . SVG Version: 6.00 Build 0)  -->
<svg version="1.1" id="图层_1" xmlns="http://www.w3.org/2000/svg" xmlns:xlink="http://www.w3.org/1999/xlink" x="0px" y="0px"
	 viewBox="0 0 26 24" style="enable-background:new 0 0 26 24;" xml:space="preserve">
<style type="text/css">
	.st0{fill:#020202;}
	.st1{fill-rule:evenodd;clip-rule:evenodd;fill:#020202;}
</style>
<title>编组@1x</title>
<g id="控件">
	<g id="客户工单" transform="translate(-10.000000, -11.000000)">
		<g id="编组" transform="translate(10.000000, 11.000000)">
			<path id="形状结合" class="st0" d="M11.2,12.7c1.5,0,3.6,0.3,5.6,1c-1.7,0.9-2.8,2.7-2.8,4.8c0,1.3,0.5,2.5,1.3,3.5L0.8,22
				c-0.4,0-0.7-0.3-0.8-0.7l0-0.1v-2.3C0,14.8,7.4,12.7,11.2,12.7z M11.6,0c3.3,0,5.9,2.8,5.6,6.1c-0.3,2.5-2.4,4.6-4.9,4.8
				C8.9,11.3,6.1,8.9,6,5.7l0-0.2C6,2.5,8.5,0,11.6,0z"/>
			<path id="形状结合_1_" class="st1" d="M21,14c2.8,0,5,2.2,5,5s-2.2,5-5,5s-5-2.2-5-5S18.2,14,21,14z M23.6,16h-5.2v1.1l2,0
				v3.7l-2.4,0V22h6v-1.1l-2.4,0v-3.7l2.1,0V16z"/>
		</g>
	</g>
</g>
</svg>
