<?xml version="1.0" encoding="utf-8"?>
<!-- Generator: Adobe Illustrator 24.0.0, SVG Export Plug-In . SVG Version: 6.00 Build 0)  -->
<svg version="1.1" id="图层_1" xmlns="http://www.w3.org/2000/svg" xmlns:xlink="http://www.w3.org/1999/xlink" x="0px" y="0px"
	 viewBox="0 0 18 20" style="enable-background:new 0 0 18 20;" xml:space="preserve">
<style type="text/css">
	.st0{fill-rule:evenodd;clip-rule:evenodd;}
</style>
<title>形状结合</title>
<g id="控件">
	<g id="数据管理" transform="translate(-13.000000, -12.000000)">
		<g id="编组" transform="translate(13.000000, 12.000000)">
			<path id="形状结合" class="st0" d="M2,8c1.1,0,2,0.9,2,2v8c0,1.1-0.9,2-2,2s-2-0.9-2-2v-8C0,8.9,0.9,8,2,8z M9,0
				c1.1,0,2,0.9,2,2v16c0,1.1-0.9,2-2,2s-2-0.9-2-2V2C7,0.9,7.9,0,9,0z M16,4c1.1,0,2,0.9,2,2v12c0,1.1-0.9,2-2,2s-2-0.9-2-2V6
				C14,4.9,14.9,4,16,4z"/>
		</g>
	</g>
</g>
</svg>
