<?xml version="1.0" encoding="UTF-8"?>
<svg width="57px" height="70px" viewBox="0 0 57 70" version="1.1" xmlns="http://www.w3.org/2000/svg" xmlns:xlink="http://www.w3.org/1999/xlink">
    <title>编组</title>
    <g id="工单管理" stroke="none" stroke-width="1" fill="none" fill-rule="evenodd">
        <g transform="translate(-1565.000000, -96.000000)" id="编组-4备份-2">
            <g transform="translate(1355.000000, 71.000000)">
                <g id="编组-6" transform="translate(210.000000, 25.000000)">
                    <g id="编组">
                        <g id="编组-17" transform="translate(0.000000, -0.000000)">
                            <g id="编组-5">
                                <rect id="矩形" fill="#EBEFF7" x="0" y="0" width="56" height="67" rx="6"></rect>
                                <rect id="矩形" fill="#8CA0BC" x="9.88235294" y="12.5625" width="37.0588235" height="6.7" rx="3.35"></rect>
                                <rect id="矩形备份-3" fill="#8CA0BC" x="9.88235294" y="23.45" width="23.8823529" height="6.7" rx="3.35"></rect>
                                <rect id="矩形备份-5" fill="#8CA0BC" x="9.88235294" y="34.3375" width="30.4705882" height="6.7" rx="3.35"></rect>
                                <rect id="矩形备份-6" fill="#8CA0BC" x="9.88235294" y="45.225" width="19.7647059" height="6.7" rx="3.35"></rect>
                            </g>
                        </g>
                        <g id="编组-13" transform="translate(31.000000, 43.000000)" fill-rule="nonzero">
                            <path d="M26,13.4268195 C26,6.0228739 20.1685847,0 13.0004646,0 C5.83187991,0 0.000464617584,6.02335377 0.000464617584,13.4268195 C0.000464617584,13.4498534 0.00232308792,13.4728872 0.00232308792,13.496401 C0.00232308792,13.522314 0,13.5477473 0,13.5736604 C0,20.9766462 5.83187991,27 13.0004646,27 C20.1690493,27 26,20.9766462 26,13.5731805 C26,13.548707 25.9981415,13.5242335 25.9976769,13.4997601 C25.9981415,13.4752866 26,13.451293 26,13.4268195 Z" id="路径" fill="#5496F2"></path>
                            <path d="M20.0541066,10.9117508 L11.7023571,19.9581182 C11.5303794,20.1446927 11.293864,20.25 11.0468037,20.25 C10.7997435,20.25 10.563228,20.1446927 10.3912504,19.9581182 L5.94566224,15.1426157 C5.59408378,14.7616533 5.60267917,14.1530322 5.96486059,13.7832225 C6.327042,13.4134129 6.90565871,13.422454 7.25723717,13.8034164 L11.047272,17.9081927 L18.7434682,9.5725515 C19.0952868,9.19217453 19.6734399,9.18314066 20.0358448,9.55235762 C20.3973356,9.92225046 20.4057642,10.5310222 20.0541066,10.9117508 L20.0541066,10.9117508 Z" id="路径" fill="#FFFFFF"></path>
                        </g>
                    </g>
                </g>
            </g>
        </g>
    </g>
</svg>