<?xml version="1.0" encoding="utf-8"?>
<!-- Generator: Adobe Illustrator 24.0.0, SVG Export Plug-In . SVG Version: 6.00 Build 0)  -->
<svg version="1.1" id="图层_1" xmlns="http://www.w3.org/2000/svg" xmlns:xlink="http://www.w3.org/1999/xlink" x="0px" y="0px"
	 viewBox="0 0 17 14" style="enable-background:new 0 0 17 14;" xml:space="preserve">
<title>no see@3x</title>
<g id="切图_x26_svg">
	<g id="我的-修改密码-默认" transform="translate(-342.000000, -176.000000)">
		<g id="no-see" transform="translate(342.000000, 176.000000)">
			<path id="形状" d="M13.9,11.2c1.4-1,2.4-2.4,3-4c-1.3-3.4-4.6-5.8-8.4-5.8c-1.4,0-2.7,0.3-3.9,0.9l-2-1.9C2.3,0,1.8,0,1.5,0.3
				c-0.3,0.3-0.3,0.8,0,1.1l1.7,1.7c-1.4,1-2.5,2.4-3.1,4.1C1.4,10.6,4.7,13,8.5,13c1.4,0,2.8-0.3,4-0.9l1.7,1.7
				c0.3,0.3,0.8,0.3,1.1,0c0.3-0.3,0.3-0.8,0-1.1L13.9,11.2L13.9,11.2z M8.5,10.9c-2.1,0-3.8-1.6-3.8-3.7c0-0.8,0.2-1.5,0.6-2.1
				l2.1,2C6.9,7,6.3,6.8,6.3,7.2c0,1.2,1,2.1,2.2,2.1c0.3,0,0.7-0.1,1-0.2l1.2,1.1C10,10.6,9.3,10.9,8.5,10.9L8.5,10.9z M11.7,9.1
				L10.5,8c0.1-0.2,0.2-0.5,0.2-0.8c0-1-0.7-2.1-2.2-2.1C8.2,5,8.3,5.4,8.4,5.9L6.5,4c0.6-0.3,1.3-0.6,2-0.6c2.1,0,3.8,1.6,3.8,3.7
				C12.3,7.9,12.1,8.5,11.7,9.1L11.7,9.1z"/>
		</g>
	</g>
</g>
</svg>
