<?xml version="1.0" encoding="utf-8"?>
<!-- Generator: Adobe Illustrator 24.0.0, SVG Export Plug-In . SVG Version: 6.00 Build 0)  -->
<svg version="1.1" id="图层_1" xmlns="http://www.w3.org/2000/svg" xmlns:xlink="http://www.w3.org/1999/xlink" x="0px" y="0px"
	 viewBox="0 0 17 12" style="enable-background:new 0 0 17 12;" xml:space="preserve">
<title>eye@3x</title>
<g id="切图_x26_svg">
	<g id="我的-修改密码-默认" transform="translate(-342.000000, -120.000000)">
		<g id="eye" transform="translate(342.000000, 120.000000)">
			<path id="形状" d="M8.5,3.9c-0.6,0,0.4,1.7,0,2.1C8.1,6.4,6.4,5.4,6.4,6c0,1.1,1,2.1,2.1,2.1s2.1-0.9,2.1-2.1
				C10.6,5,9.9,3.9,8.5,3.9L8.5,3.9z M8.5,0.3C4.8,0.3,1.6,2.7,0.4,6c1.2,3.3,4.4,5.7,8.1,5.7s6.9-2.4,8.1-5.7
				C15.4,2.7,12.2,0.3,8.5,0.3z M8.5,9.6C6.5,9.6,4.8,8,4.8,6s1.6-3.6,3.7-3.6c2,0,3.7,1.6,3.7,3.6S10.5,9.6,8.5,9.6L8.5,9.6z"/>
		</g>
	</g>
</g>
</svg>
