<?xml version="1.0" standalone="no"?><!DOCTYPE svg PUBLIC "-//W3C//DTD SVG 1.1//EN" "http://www.w3.org/Graphics/SVG/1.1/DTD/svg11.dtd"><svg t="1587462156320" class="icon" viewBox="0 0 1024 1024" version="1.1" xmlns="http://www.w3.org/2000/svg" p-id="2236" xmlns:xlink="http://www.w3.org/1999/xlink" width="200" height="200"><defs><style type="text/css"></style></defs><path d="M204.8 755.2h-96c-32 0-54.4-25.6-54.4-54.4v-214.4c0-32 25.6-54.4 54.4-54.4h96c32 0 54.4 25.6 54.4 54.4v214.4c0 28.8-25.6 54.4-54.4 54.4z m272 256h-16c-25.6 0-44.8-19.2-44.8-44.8v-16c0-25.6 19.2-44.8 44.8-44.8h16c25.6 0 44.8 19.2 44.8 44.8v16c0 22.4-19.2 44.8-44.8 44.8z" p-id="2237"></path><path d="M531.2 976c-12.8 0-22.4-9.6-22.4-22.4 0-12.8 9.6-22.4 22.4-22.4 134.4 0 275.2-76.8 364.8-195.2 6.4-9.6 22.4-12.8 32-6.4 9.6 6.4 12.8 22.4 6.4 32-99.2 131.2-256 214.4-403.2 214.4zM73.6 540.8c-12.8 0-22.4-9.6-22.4-22.4v-22.4C54.4 368 102.4 249.6 192 160 278.4 64 400 12.8 531.2 12.8c265.6 0 464 201.6 476.8 476.8 0 12.8-9.6 22.4-22.4 25.6-12.8 0-22.4-9.6-25.6-22.4-9.6-249.6-192-432-428.8-432-118.4 0-227.2 44.8-307.2 128s-124.8 188.8-128 307.2v19.2c0 12.8-9.6 25.6-22.4 25.6z" p-id="2238"></path><path d="M953.6 755.2h-96c-32 0-57.6-25.6-57.6-57.6v-214.4c0-32 25.6-57.6 57.6-57.6h96c32 0 57.6 25.6 57.6 57.6v214.4c0 32-25.6 57.6-57.6 57.6z" p-id="2239"></path></svg>