<?xml version="1.0" standalone="no"?><!DOCTYPE svg PUBLIC "-//W3C//DTD SVG 1.1//EN" "http://www.w3.org/Graphics/SVG/1.1/DTD/svg11.dtd"><svg t="1587462138456" class="icon" viewBox="0 0 1102 1024" version="1.1" xmlns="http://www.w3.org/2000/svg" p-id="1957" xmlns:xlink="http://www.w3.org/1999/xlink" width="215.234375" height="200"><defs><style type="text/css"></style></defs><path d="M606.4 590.4c6.4-8 1.6-19.2-6.4-22.4-8-3.2-16-6.4-17.6-6.4-51.2-27.2-257.6-30.4-331.2-3.2-62.4 22.4-116.8 62.4-152 118.4-30.4 48-46.4 104-46.4 161.6v17.6c0 67.2 123.2 67.2 272 67.2h249.6c11.2 0 17.6-12.8 12.8-22.4-24-43.2-36.8-91.2-36.8-140.8 0-64 20.8-121.6 56-169.6zM185.6 280c0-124.8 104-228.8 228.8-228.8 126.4 0 228.8 102.4 228.8 228.8 1.6 126.4-100.8 228.8-225.6 228.8h-3.2c-126.4 0-228.8-102.4-228.8-228.8zM672 739.2L625.6 704c-4.8-3.2-4.8-9.6-3.2-14.4l43.2-73.6c3.2-4.8 8-6.4 12.8-4.8l54.4 20.8c11.2-8 24-16 36.8-20.8l8-56c1.6-4.8 4.8-9.6 11.2-9.6h88c4.8 0 9.6 3.2 11.2 9.6l8 56c12.8 4.8 25.6 12.8 36.8 20.8l54.4-20.8c4.8-1.6 11.2 0 12.8 4.8l43.2 73.6c3.2 4.8 1.6 9.6-3.2 14.4l-46.4 35.2c1.6 6.4 1.6 14.4 1.6 20.8s0 14.4-1.6 20.8L1040 816c4.8 3.2 4.8 9.6 3.2 14.4l-43.2 73.6c-3.2 4.8-8 6.4-12.8 4.8l-54.4-20.8c-11.2 8-24 16-36.8 20.8l-8 56c-1.6 4.8-4.8 9.6-11.2 9.6h-88c-4.8 0-9.6-3.2-11.2-9.6l-8-56c-12.8-4.8-25.6-12.8-36.8-20.8l-54.4 20.8c-4.8 1.6-11.2 0-12.8-4.8L624 830.4c-3.2-4.8-1.6-9.6 3.2-14.4l46.4-35.2c-1.6-6.4-1.6-14.4-1.6-20.8-1.6-6.4 0-14.4 0-20.8z m163.2-54.4c-41.6 0-76.8 33.6-76.8 75.2s35.2 75.2 76.8 75.2c41.6 0 76.8-33.6 76.8-75.2s-35.2-75.2-76.8-75.2z" p-id="1958"></path></svg>